ffmpeg started on 2016-12-05 at 08:49:43
Report written to "Output/x264/results/ffmpeg/crowd_run_2160p50veryfast14000k.log"
Command line:
Tools/ffmpeg/ffmpeg -benchmark -y -i Input/y4m/crowd_run_2160p50.y4m -c:v libx264 -preset veryfast -b:v 14000k -an Output/x264/encoded/crowd_run_2160p50veryfast14000k.mkv
ffmpeg version N-82227-gdb23fde Copyright (c) 2000-2016 the FFmpeg developers
  built with gcc 5.4.0 (Ubuntu 5.4.0-6ubuntu1~16.04.2) 20160609
  configuration: --prefix=/home/jaroslav/ffmpeg_build --pkg-config-flags=--static --extra-cflags=-I/home/jaroslav/ffmpeg_build/include --extra-ldflags=-L/home/jaroslav/ffmpeg_build/lib --bindir=/home/jaroslav/bin --enable-gpl --enable-libass --enable-libfdk-aac --enable-libfreetype --enable-libmp3lame --enable-libopus --enable-libtheora --enable-libvorbis --enable-libvpx --enable-libx264 --enable-libx265 --enable-nvenc --enable-libmfx --enable-libxvid --enable-libgsm --enable-libopencore-amrnb --enable-version3 --enable-nonfree
  libavutil      55. 35.100 / 55. 35.100
  libavcodec     57. 66.101 / 57. 66.101
  libavformat    57. 57.100 / 57. 57.100
  libavdevice    57.  2.100 / 57.  2.100
  libavfilter     6. 66.100 /  6. 66.100
  libswscale      4.  3.100 /  4.  3.100
  libswresample   2.  4.100 /  2.  4.100
  libpostproc    54.  2.100 / 54.  2.100
Input #0, yuv4mpegpipe, from 'Input/y4m/crowd_run_2160p50.y4m':
  Duration: 00:00:10.00, start: 0.000000, bitrate: 4976642 kb/s
    Stream #0:0: Video: rawvideo (I420 / 0x30323449), yuv420p(progressive), 3840x2160, SAR 1:1 DAR 16:9, 50 fps, 50 tbr, 50 tbn, 50 tbc
[libx264 @ 0x33ae1c0] using SAR=1/1
[libx264 @ 0x33ae1c0] using cpu capabilities: MMX2 SSE2Fast SSSE3 SSE4.2 AVX FMA3 AVX2 LZCNT BMI2
[libx264 @ 0x33ae1c0] profile High, level 5.2
[libx264 @ 0x33ae1c0] 264 - core 148 - H.264/MPEG-4 AVC codec - Copyleft 2003-2016 - http://www.videolan.org/x264.html - options: cabac=1 ref=1 deblock=1:0:0 analyse=0x3:0x113 me=hex subme=2 psy=1 psy_rd=1.00:0.00 mixed_ref=0 me_range=16 chroma_me=1 trellis=0 8x8dct=1 cqm=0 deadzone=21,11 fast_pskip=1 chroma_qp_offset=0 threads=6 lookahead_threads=2 sliced_threads=0 nr=0 decimate=1 interlaced=0 bluray_compat=0 constrained_intra=0 bframes=3 b_pyramid=2 b_adapt=1 b_bias=0 direct=1 weightb=1 open_gop=0 weightp=1 keyint=250 keyint_min=25 scenecut=40 intra_refresh=0 rc_lookahead=10 rc=abr mbtree=1 bitrate=14000 ratetol=1.0 qcomp=0.60 qpmin=0 qpmax=69 qpstep=4 ip_ratio=1.40 aq=1:1.00
Output #0, matroska, to 'Output/x264/encoded/crowd_run_2160p50veryfast14000k.mkv':
  Metadata:
    encoder         : Lavf57.57.100
    Stream #0:0: Video: h264 (libx264) (H264 / 0x34363248), yuv420p, 3840x2160 [SAR 1:1 DAR 16:9], q=-1--1, 14000 kb/s, 50 fps, 1k tbn, 50 tbc
    Metadata:
      encoder         : Lavc57.66.101 libx264
    Side data:
      cpb: bitrate max/min/avg: 0/0/14000000 buffer size: 0 vbv_delay: -1
Stream mapping:
  Stream #0:0 -> #0:0 (rawvideo (native) -> h264 (libx264))
Press [q] to stop, [?] for help
frame=    7 fps=0.0 q=0.0 size=       0kB time=00:00:00.00 bitrate=N/A speed=   0x    frame=   15 fps= 15 q=0.0 size=       0kB time=00:00:00.00 bitrate=N/A speed=   0x    frame=   22 fps= 14 q=32.0 size=       1kB time=-00:00:00.01 bitrate=N/A speed=N/A    frame=   31 fps= 15 q=42.0 size=       1kB time=00:00:00.16 bitrate=  36.4kbits/s speed=0.0768x    frame=   42 fps= 16 q=45.0 size=       1kB time=00:00:00.38 bitrate=  15.4kbits/s speed=0.146x    frame=   56 fps= 18 q=44.0 size=       1kB time=00:00:00.66 bitrate=   8.9kbits/s speed=0.212x    frame=   69 fps= 19 q=43.0 size=       1kB time=00:00:00.92 bitrate=   6.4kbits/s speed=0.254x    frame=   82 fps= 20 q=42.0 size=       1kB time=00:00:01.18 bitrate=   5.0kbits/s speed=0.283x    frame=   95 fps= 20 q=42.0 size=       1kB time=00:00:01.44 bitrate=   4.1kbits/s speed=0.307x    frame=  107 fps= 20 q=41.0 size=       1kB time=00:00:01.68 bitrate=   3.5kbits/s speed=0.321x    frame=  121 fps= 21 q=41.0 size=       1kB time=00:00:01.96 bitrate=   3.0kbits/s speed=0.341x    frame=  133 fps= 21 q=41.0 size=       1kB time=00:00:02.20 bitrate=   2.7kbits/s speed=0.35x    frame=  146 fps= 21 q=41.0 size=       1kB time=00:00:02.46 bitrate=   2.4kbits/s speed=0.361x    frame=  159 fps= 22 q=41.0 size=       1kB time=00:00:02.72 bitrate=   2.2kbits/s speed=0.369x    frame=  169 fps= 21 q=41.0 size=    5126kB time=00:00:02.92 bitrate=14377.1kbits/s speed=0.363x    frame=  179 fps= 21 q=41.0 size=    5126kB time=00:00:03.12 bitrate=13455.8kbits/s speed=0.364x    frame=  186 fps= 20 q=41.0 size=    5126kB time=00:00:03.26 bitrate=12878.1kbits/s speed=0.358x    frame=  198 fps= 21 q=40.0 size=    5126kB time=00:00:03.50 bitrate=11995.3kbits/s speed=0.364x    frame=  203 fps= 20 q=40.0 size=    5126kB time=00:00:03.60 bitrate=11662.2kbits/s speed=0.356x    frame=  215 fps= 20 q=40.0 size=    5126kB time=00:00:03.84 bitrate=10933.5kbits/s speed=0.362x    frame=  228 fps= 20 q=40.0 size=    5126kB time=00:00:04.10 bitrate=10240.3kbits/s speed=0.365x    frame=  241 fps= 21 q=40.0 size=    5126kB time=00:00:04.36 bitrate=9629.8kbits/s speed=0.371x    frame=  254 fps= 21 q=40.0 size=    5126kB time=00:00:04.62 bitrate=9088.0kbits/s speed=0.375x    frame=  266 fps= 21 q=37.0 size=    5126kB time=00:00:04.86 bitrate=8639.3kbits/s speed=0.379x    frame=  277 fps= 21 q=41.0 size=    8717kB time=00:00:05.08 bitrate=14054.3kbits/s speed=0.381x    frame=  281 fps= 20 q=41.0 size=    8717kB time=00:00:05.16 bitrate=13836.4kbits/s speed=0.373x    frame=  294 fps= 20 q=41.0 size=    8717kB time=00:00:05.42 bitrate=13172.8kbits/s speed=0.377x    frame=  305 fps= 21 q=41.0 size=    8717kB time=00:00:05.64 bitrate=12659.1kbits/s speed=0.379x    frame=  317 fps= 21 q=41.0 size=    8717kB time=00:00:05.88 bitrate=12142.5kbits/s speed=0.382x    frame=  323 fps= 20 q=41.0 size=    8717kB time=00:00:06.00 bitrate=11899.7kbits/s speed=0.377x    frame=  335 fps= 20 q=41.0 size=    8717kB time=00:00:06.24 bitrate=11442.1kbits/s speed=0.38x    frame=  346 fps= 20 q=41.0 size=    8717kB time=00:00:06.46 bitrate=11052.5kbits/s speed=0.381x    frame=  359 fps= 21 q=41.0 size=    8717kB time=00:00:06.72 bitrate=10624.9kbits/s speed=0.385x    frame=  371 fps= 21 q=41.0 size=    8717kB time=00:00:06.96 bitrate=10258.6kbits/s speed=0.387x    frame=  383 fps= 21 q=41.0 size=    8717kB time=00:00:07.20 bitrate=9916.7kbits/s speed=0.389x    frame=  395 fps= 21 q=41.0 size=    8717kB time=00:00:07.44 bitrate=9596.8kbits/s speed=0.391x    frame=  407 fps= 21 q=40.0 size=    8717kB time=00:00:07.68 bitrate=9297.0kbits/s speed=0.393x    frame=  414 fps= 21 q=40.0 size=    8717kB time=00:00:07.82 bitrate=9130.5kbits/s speed=0.389x    frame=  427 fps= 21 q=40.0 size=   13893kB time=00:00:08.08 bitrate=14084.1kbits/s speed=0.391x    frame=  440 fps= 21 q=40.0 size=   13893kB time=00:00:08.34 bitrate=13645.0kbits/s speed=0.394x    frame=  452 fps= 21 q=40.0 size=   13893kB time=00:00:08.58 bitrate=13263.4kbits/s speed=0.395x    frame=  459 fps= 21 q=40.0 size=   13893kB time=00:00:08.72 bitrate=13050.5kbits/s speed=0.39x    frame=  470 fps= 21 q=40.0 size=   13893kB time=00:00:08.94 bitrate=12729.4kbits/s speed=0.391x    frame=  484 fps= 21 q=40.0 size=   13893kB time=00:00:09.22 bitrate=12342.8kbits/s speed=0.394x    frame=  497 fps= 21 q=40.0 size=   13893kB time=00:00:09.48 bitrate=12004.4kbits/s speed=0.396x    frame=  500 fps= 20 q=-1.0 Lsize=   17090kB time=00:00:09.94 bitrate=14082.9kbits/s speed=0.404x    
video:17085kB audio:0kB subtitle:0kB other streams:0kB global headers:0kB muxing overhead: 0.026396%
bench: utime=75.600s
bench: maxrss=1097800kB
[libx264 @ 0x33ae1c0] frame I:2     Avg QP:31.39  size:512134
[libx264 @ 0x33ae1c0] frame P:126   Avg QP:39.60  size: 74125
[libx264 @ 0x33ae1c0] frame B:372   Avg QP:42.15  size: 19168
[libx264 @ 0x33ae1c0] consecutive B-frames:  0.8%  0.0%  0.0% 99.2%
[libx264 @ 0x33ae1c0] mb I  I16..4: 14.9% 54.4% 30.7%
[libx264 @ 0x33ae1c0] mb P  I16..4:  5.3% 12.0%  0.1%  P16..4: 24.0% 10.2%  3.1%  0.0%  0.0%    skip:45.3%
[libx264 @ 0x33ae1c0] mb B  I16..4:  0.7%  0.6%  0.0%  B16..8: 15.3%  3.6%  0.1%  direct: 2.8%  skip:76.8%  L0:41.9% L1:53.4% BI: 4.7%
[libx264 @ 0x33ae1c0] final ratefactor: 32.39
[libx264 @ 0x33ae1c0] 8x8 transform intra:64.1% inter:45.7%
[libx264 @ 0x33ae1c0] coded y,uvDC,uvAC intra: 33.7% 44.6% 14.1% inter: 2.5% 5.7% 0.1%
[libx264 @ 0x33ae1c0] i16 v,h,dc,p: 43% 25% 21% 11%
[libx264 @ 0x33ae1c0] i8 v,h,dc,ddl,ddr,vr,hd,vl,hu: 20% 15% 34%  5%  4%  6%  5%  6%  6%
[libx264 @ 0x33ae1c0] i4 v,h,dc,ddl,ddr,vr,hd,vl,hu: 19% 16% 12%  9%  9%  9%  8%  9%  9%
[libx264 @ 0x33ae1c0] i8c dc,h,v,p: 67% 11% 19%  3%
[libx264 @ 0x33ae1c0] Weighted P-Frames: Y:1.6% UV:0.0%
[libx264 @ 0x33ae1c0] kb/s:13995.55
